<?xml version="1.0" encoding="utf-8"?>
<!-- Generator: Adobe Illustrator 23.0.1, SVG Export Plug-In . SVG Version: 6.00 Build 0)  -->
<svg version="1.0" id="Layer_1" xmlns="http://www.w3.org/2000/svg" xmlns:xlink="http://www.w3.org/1999/xlink" x="0px" y="0px"
	 viewBox="0 0 17.2 17.2" style="enable-background:new 0 0 17.2 17.2;" xml:space="preserve">
<path d="M12,16c-0.5,0-0.8-0.4-0.8-0.8v-1.8c-0.4,0-0.8-0.1-1.1-0.4L10,12.8v2.4c0,0.2-0.1,0.4-0.2,0.6C9.6,15.9,9.4,16,9.2,16
	c-0.2,0-0.3,0-0.4-0.1c-0.3,0.2-0.7,0.1-1-0.1c-0.2-0.2-0.2-0.4-0.2-0.6v-2.4c-0.1,0.1-0.3,0.2-0.5,0.2l-0.1,0c-0.1,0-0.2,0-0.3,0
	l0.4,1.5c0,0.2-0.2,0.4-0.4,0.4H6.5v0.3c0,0.2-0.1,0.4-0.2,0.6c-0.3,0.3-0.7,0.3-1,0.2C5.1,16,5,16,4.9,16C4.4,16,4,15.7,4,15.2
	v-0.3l-0.2,0c-0.2-0.1-0.4-0.3-0.3-0.5l0.3-1.2c-0.2,0-0.5-0.1-0.6-0.2c-0.2-0.2-0.2-0.4-0.2-0.6c0-0.2,0.1-0.4,0.3-0.6l1-1H3.9
	c-0.1,0-0.1,0-0.2,0c-0.1-0.1-0.2-0.1-0.2-0.3c0-0.1,0-0.2,0-0.3l0.4-0.9C4,9,4,8.9,4.1,8.8c0.1-0.1,0.2-0.2,0.3-0.3
	C5,8,5.9,8.1,6.4,8.7c0,0,0,0.1,0.1,0.1C6.5,8.9,6.5,9,6.6,9.2L7,10c0,0.1,0,0.1,0,0.2c0,0.2-0.2,0.4-0.4,0.4H6.4L6.9,11l0.8-0.8
	c-0.1-0.1-0.1-0.1-0.1-0.2C7.4,9.7,7.3,9.3,7.4,8.9C7.4,8.6,7.6,8.3,8,8C8.3,7.8,8.6,7.8,9,7.8c0.4,0.1,0.7,0.3,0.9,0.6
	c0.2,0.3,0.3,0.7,0.2,1.1c-0.1,0.3-0.2,0.5-0.4,0.7l1.3,1.3c0,0,0.1,0,0.1,0l0.3-0.3c-0.4-0.5-0.3-1.3,0.2-1.7
	c0.5-0.4,1.3-0.4,1.7,0.2c0.2,0.2,0.3,0.6,0.3,0.9c0,0.2-0.1,0.4-0.2,0.6c0,0,0,0,0,0h0l1.3,1.3c0.2,0.2,0.2,0.4,0.2,0.6
	c0,0.2-0.1,0.4-0.2,0.6c-0.3,0.3-0.8,0.3-1.1,0.1v1.5c0,0.2-0.1,0.4-0.2,0.6c-0.3,0.3-0.7,0.3-1,0.2C12.3,16,12.2,16,12,16
	 M11.7,12.7v2.5c0,0.3,0.4,0.4,0.5,0.2l0.2-0.2l0.2,0.2c0.1,0.1,0.3,0.1,0.5,0c0.1-0.1,0.1-0.1,0.1-0.2v-2.6l0.7,0.7
	c0.1,0.1,0.4,0.1,0.5,0c0.1-0.1,0.1-0.2,0.1-0.2c0-0.1,0-0.2-0.1-0.3l-1.3-1.3c-0.1-0.1-0.1-0.1-0.2-0.1l-0.3-0.2l0.3-0.2
	c0.1-0.1,0.2-0.3,0.3-0.5c0-0.2,0-0.4-0.2-0.5c-0.3-0.3-0.7-0.3-1-0.1c-0.3,0.3-0.3,0.7-0.1,1c0,0,0.1,0.1,0.1,0.1l0.3,0.2L12,11.4
	c-0.1,0-0.1,0.1-0.2,0.1l-0.4,0.3c-0.2,0.2-0.6,0.2-0.8,0l-1.3-1.3c0,0-0.1-0.1-0.1-0.1l-0.3-0.2L9.2,10c0.2-0.1,0.3-0.3,0.4-0.6
	c0-0.2,0-0.5-0.1-0.7C9.4,8.5,9.2,8.4,8.9,8.3c-0.2,0-0.5,0-0.7,0.1C8,8.6,7.9,8.8,7.8,9c0,0.2,0,0.5,0.1,0.7C8,9.8,8.1,9.9,8.2,10
	l0.3,0.2l-0.3,0.2c-0.1,0-0.1,0.1-0.1,0.1L7,11.7l-1-0.7c-0.1-0.1-0.1-0.1-0.2-0.1l-0.3-0.2l0.3-0.2c0.1,0,0.1-0.1,0.2-0.1L6,10.1
	h0.5L6.1,9.4C6.1,9.2,6,9.2,6,9.1C5.7,8.7,5.1,8.6,4.7,8.9C4.6,8.9,4.6,9,4.5,9.1C4.5,9.2,4.4,9.2,4.4,9.3L4,10.1l0.5,0l0.1,0.1
	c0.1,0.1,0.1,0.1,0.2,0.1l0.3,0.2l-0.3,0.2c0,0-0.1,0.1-0.1,0.1L3.5,12c-0.1,0.1-0.1,0.2-0.1,0.3c0,0.1,0,0.2,0.1,0.3
	c0.1,0.1,0.3,0.1,0.5,0l0.6-0.5L4,14.4l0.6,0v0.8c0,0.3,0.4,0.4,0.6,0.2l0.2-0.2l0.2,0.2c0.1,0.1,0.3,0.1,0.5,0
	C5.9,15.4,6,15.3,6,15.2v-0.8h0.6L5.9,12l0.8,0.4c0.1,0,0.2,0.1,0.3,0.1l0.1,0c0.1,0,0.2,0,0.2-0.1L8,11.6v3.6c0,0.1,0,0.2,0.1,0.2
	c0.1,0.1,0.3,0.1,0.5,0l0.2-0.2l0.2,0.2c0.1,0.1,0.1,0.1,0.2,0.1c0.1,0,0.2,0,0.2-0.1c0.1-0.1,0.1-0.1,0.1-0.2v-3.6l1,1
	c0.2,0.2,0.6,0.3,0.9,0.2L11.7,12.7z M4,14.4L4,14.4C4,14.4,4,14.4,4,14.4"/>
<path d="M6.8,8.3C6.4,8.3,6.1,8,6.1,7.6V5.5c0,0,0,0,0,0c-0.4-0.3-1-0.2-1.4,0c-0.1,0-0.2,0.1-0.2,0.1c-0.1,0-0.2,0-0.3-0.1
	C3.7,5.2,3,5.2,2.5,5.5c-0.1,0.1-0.3,0.1-0.4,0C2,5.4,1.9,5.3,1.9,5.1C2.1,2.9,4,1.2,6.3,1.2s4.2,1.7,4.4,3.9c0,0.2-0.1,0.3-0.2,0.4
	s-0.3,0.1-0.4,0c-0.4-0.3-1.1-0.3-1.6,0C8.4,5.5,8.2,5.6,8,5.5c-0.4-0.3-1-0.3-1.4,0c0,0,0,0,0,0v2.1c0,0.1,0.1,0.2,0.2,0.2
	C6.9,7.8,7,7.7,7,7.6V6.9c0-0.1,0.1-0.2,0.2-0.2s0.2,0.1,0.2,0.2v0.6C7.5,8,7.2,8.3,6.8,8.3 M2.3,5.1C2.3,5.1,2.3,5.1,2.3,5.1
	C2.3,5.1,2.3,5.1,2.3,5.1 M8.3,5C8.3,5.1,8.3,5.1,8.3,5L8.3,5L8.3,5z M3.3,4.8c0.4,0,0.7,0.1,1,0.3c0.5-0.3,1.1-0.4,1.7-0.1V4.3
	C6.1,4.1,6.2,4,6.3,4s0.2,0.1,0.2,0.2v0.6C7.1,4.7,7.7,4.7,8.2,5C8.8,4.7,9.6,4.7,10.2,5C9.9,3.2,8.4,1.8,6.5,1.7v0.7
	c0,0.1-0.1,0.2-0.2,0.2S6.1,2.5,6.1,2.3V1.7C4.2,1.8,2.7,3.2,2.4,5C2.7,4.8,3,4.8,3.3,4.8"/>
<path d="M11.7,5.3c0.8,0,1.5,0.7,1.5,1.5s-0.7,1.5-1.5,1.5c-0.8,0-1.5-0.7-1.5-1.5S10.8,5.3,11.7,5.3 M11.7,4.7
	c-1.2,0-2.1,0.9-2.1,2.1c0,1.2,0.9,2.1,2.1,2.1c1.2,0,2.1-0.9,2.1-2.1C13.8,5.6,12.8,4.7,11.7,4.7"/>
<path d="M11.5,8l0-0.3c0,0,0,0-0.1,0c0,0-0.1,0-0.1,0c-0.1,0-0.1-0.1-0.2-0.1S11,7.5,11,7.4c0-0.1,0-0.2,0-0.3l0.4,0
	c0,0.1,0.1,0.1,0.1,0.2l0.1,0.2l0,0l0.2,0l0.1-0.1l0-0.2l0,0L11.7,7c0,0-0.1,0-0.1-0.1c-0.1,0-0.2-0.1-0.2-0.1
	c-0.1,0-0.1-0.1-0.2-0.1c-0.1,0-0.1-0.1-0.1-0.2c0-0.1,0-0.1,0-0.2c0-0.1,0-0.1,0-0.2c0-0.1,0.1-0.1,0.1-0.2c0,0,0.1-0.1,0.2-0.1
	c0.1,0,0.1,0,0.2-0.1l0-0.2l0.2,0l0,0.3c0,0,0,0,0,0c0,0,0.1,0,0.1,0c0.1,0,0.1,0.1,0.2,0.1c0,0.1,0.1,0.1,0.1,0.2
	c0,0.1,0,0.2,0,0.2l-0.4,0c0-0.1-0.1-0.2-0.1-0.2c0,0-0.1-0.1-0.1-0.1l-0.1,0.1l0,0.1l0,0.2l0,0c0.1,0.1,0.1,0.1,0.2,0.1
	c0.1,0,0.2,0.1,0.2,0.1c0.1,0,0.1,0.1,0.2,0.1c0.1,0,0.1,0.1,0.1,0.2c0,0.1,0,0.1,0,0.2c0,0.1,0,0.2,0,0.2c0,0.1-0.1,0.1-0.1,0.2
	c0,0-0.1,0.1-0.2,0.1c-0.1,0-0.1,0-0.2,0.1l0,0.2v0H11.5z"/>
<path d="M11.8,5.6v0.3c0.1,0,0.1,0,0.2,0.1C12,5.9,12.1,6,12.1,6s0.1,0.1,0.1,0.2c0,0.1,0,0.1,0,0.2h-0.4c0-0.1,0-0.2-0.1-0.2
	c0,0-0.1-0.1-0.2-0.1c0,0-0.1,0-0.1,0c0,0-0.1,0-0.1,0c0,0,0,0,0,0.1c0,0,0,0.1,0,0.1c0,0,0,0.1,0,0.1c0,0,0,0,0,0.1
	c0,0,0,0,0.1,0.1s0.1,0,0.1,0.1c0.1,0,0.2,0.1,0.2,0.1s0.1,0.1,0.2,0.1c0,0,0.1,0.1,0.1,0.2c0,0.1,0,0.1,0,0.2c0,0.1,0,0.1,0,0.2
	c0,0.1-0.1,0.1-0.1,0.2c0,0-0.1,0.1-0.2,0.1c-0.1,0-0.1,0-0.2,0.1V8h-0.2V7.7c-0.1,0-0.1,0-0.2,0c-0.1,0-0.1-0.1-0.2-0.1
	c-0.1,0-0.1-0.1-0.1-0.2c0-0.1,0-0.2,0-0.3h0.4c0,0.1,0,0.1,0,0.2c0,0,0,0.1,0.1,0.1c0,0,0.1,0,0.1,0.1c0,0,0.1,0,0.1,0
	c0,0,0.1,0,0.1,0c0,0,0.1,0,0.1,0c0,0,0,0,0-0.1c0,0,0-0.1,0-0.1c0,0,0-0.1,0-0.1c0,0,0-0.1,0-0.1c0,0,0,0-0.1-0.1
	c0,0-0.1,0-0.1-0.1c-0.1,0-0.2-0.1-0.2-0.1c-0.1,0-0.1-0.1-0.2-0.1c0,0-0.1-0.1-0.1-0.2c0-0.1,0-0.1,0-0.2c0-0.1,0-0.1,0-0.2
	c0-0.1,0.1-0.1,0.1-0.2c0,0,0.1-0.1,0.2-0.1c0.1,0,0.1,0,0.2-0.1V5.6H11.8 M11.8,5.5L11.8,5.5h-0.3h-0.1v0.1v0.2c-0.1,0-0.1,0-0.2,0
	c-0.1,0-0.1,0.1-0.2,0.1C11.1,6,11,6.1,11,6.1c0,0.1,0,0.1,0,0.2c0,0.1,0,0.2,0,0.2c0,0.1,0.1,0.1,0.1,0.2c0.1,0.1,0.1,0.1,0.2,0.1
	C11.4,7,11.5,7,11.6,7c0,0,0.1,0,0.1,0c0,0,0,0,0.1,0c0,0,0,0,0,0c0,0,0,0,0,0.1c0,0,0,0,0,0.1c0,0,0,0,0,0s0,0,0,0c0,0,0,0-0.1,0
	c0,0-0.1,0-0.1,0c0,0,0,0-0.1,0c0,0,0,0,0-0.1c0,0,0-0.1,0-0.1V7h-0.1H11h-0.1v0.1c0,0.1,0,0.2,0.1,0.3c0,0.1,0.1,0.2,0.1,0.2
	c0.1,0.1,0.1,0.1,0.2,0.1c0,0,0.1,0,0.1,0V8v0.1h0.1h0.2h0.1V8V7.8c0.1,0,0.1,0,0.2,0c0.1,0,0.1-0.1,0.2-0.1
	c0.1-0.1,0.1-0.1,0.1-0.2c0-0.1,0-0.1,0-0.2c0-0.1,0-0.2,0-0.2c0-0.1-0.1-0.1-0.1-0.2c-0.1-0.1-0.1-0.1-0.2-0.1
	c-0.1,0-0.1-0.1-0.2-0.1c0,0-0.1,0-0.1-0.1c0,0,0,0-0.1,0c0,0,0,0,0,0c0,0,0,0,0-0.1c0,0,0,0,0-0.1c0,0,0,0,0,0c0,0,0,0,0,0
	c0,0,0,0,0.1,0c0,0,0.1,0,0.1,0c0,0,0,0.1,0,0.2v0.1h0.1h0.4h0.1V6.4c0-0.1,0-0.2,0-0.3c0-0.1-0.1-0.1-0.1-0.2
	c0-0.1-0.1-0.1-0.2-0.1c0,0-0.1,0-0.2-0.1V5.5L11.8,5.5z"/>
<path d="M8.2,5.3C8.1,5.3,8,5.2,8,5C7.9,3.1,7.2,1.9,6.6,1.7c-0.1,0-0.2-0.2-0.2-0.3c0-0.1,0.2-0.2,0.3-0.2C7.6,1.4,8.4,3,8.5,5
	C8.5,5.2,8.4,5.3,8.2,5.3L8.2,5.3z"/>
<path d="M4.3,5.3L4.3,5.3C4.1,5.3,4,5.2,4,5c0.1-2,0.9-3.6,1.8-3.8c0.1,0,0.3,0.1,0.3,0.2c0,0.1-0.1,0.3-0.2,0.3
	C5.4,1.9,4.7,3.1,4.6,5C4.6,5.2,4.4,5.3,4.3,5.3"/>
</svg>
