<?xml version="1.0" encoding="utf-8"?>
<!-- Generator: Adobe Illustrator 23.0.1, SVG Export Plug-In . SVG Version: 6.00 Build 0)  -->
<svg version="1.0" id="Layer_1" xmlns="http://www.w3.org/2000/svg" xmlns:xlink="http://www.w3.org/1999/xlink" x="0px" y="0px"
	 viewBox="0 0 17.2 17.2" style="enable-background:new 0 0 17.2 17.2;" xml:space="preserve">
<g>
	<path d="M13.9,6.4c0.1-0.1,0.1-0.3,0-0.4c-0.1-0.1-0.3-0.1-0.4,0c-0.1,0.1-0.1,0.3,0,0.4C13.6,6.5,13.8,6.5,13.9,6.4"/>
	<path d="M3.3,6.4c-0.1,0.1-0.1,0.3,0,0.4c0.1,0.1,0.3,0.1,0.4,0c0.1-0.1,0.1-0.3,0-0.4C3.6,6.3,3.4,6.3,3.3,6.4"/>
	<path d="M3.6,8.6l0.2,1.1l-0.4,0.4c-0.4,0.4-0.4,1,0,1.3c0.2,0.2,0.4,0.3,0.7,0.3c0,0.2,0.1,0.5,0.3,0.7c0.2,0.2,0.4,0.3,0.7,0.3
		c0,0,0,0,0,0c0,0.2,0.1,0.5,0.3,0.7c0.2,0.2,0.4,0.3,0.7,0.3c0,0,0,0,0,0c0,0.2,0.1,0.5,0.3,0.7c0.4,0.4,1,0.4,1.3,0l0.1-0.1
		l0.5,0.5c0.4,0.4,1,0.4,1.3,0c0.2-0.2,0.3-0.4,0.3-0.7c0,0,0,0,0,0c0.2,0,0.5-0.1,0.7-0.3c0.2-0.2,0.3-0.4,0.3-0.7
		c0.3,0,0.5-0.1,0.7-0.3c0.2-0.2,0.3-0.4,0.3-0.7c0,0,0,0,0,0c0.2,0,0.5-0.1,0.7-0.3c0.4-0.4,0.4-1,0-1.3l-0.1-0.1l1.3-2l1.9-1.9
		c0.1-0.1,0.1-0.3,0-0.4L12.4,3c-0.1-0.1-0.3-0.1-0.4,0c-0.3,0.3-1.6,1.6-1.9,1.9L8.8,5.4L7,5.1L5.2,3.3C5.1,3.2,5,3.2,5,3.2
		c-0.1,0-0.1,0-0.2,0.1L1.8,6.4c-0.1,0.1-0.1,0.3,0,0.4L3.6,8.6z M3.8,11c-0.2-0.2-0.2-0.4,0-0.6c0.1-0.1-0.2,0.2,0.6-0.6
		c0.2-0.2,0.4-0.2,0.6,0c0.2,0.2,0.2,0.4,0,0.6L4.3,11C4.2,11.2,3.9,11.2,3.8,11 M4.7,12c-0.2-0.2-0.2-0.4,0-0.6l0.6-0.6v0
		c0.2-0.2,0.4-0.2,0.6,0C6,11,6,11.3,5.9,11.4L5.3,12C5.1,12.2,4.9,12.2,4.7,12 M5.7,13c-0.2-0.2-0.2-0.4,0-0.6l0.6-0.6
		c0.2-0.2,0.4-0.2,0.6,0C7,12,7,12.2,6.8,12.4L6.2,13C6.1,13.1,5.8,13.1,5.7,13 M6.6,13.9c-0.2-0.2-0.2-0.4,0-0.6l0.6-0.6
		c0.2-0.2,0.4-0.2,0.6,0c0.2,0.2,0.2,0.4,0,0.6l-0.6,0.6C7,14.1,6.8,14.1,6.6,13.9 M10.3,8.5l0.2-0.2c0.1-0.1,0.1-0.3,0-0.4
		c-0.1-0.1-0.3-0.1-0.4,0C10,8.1,9.9,8.1,9.8,8.2c-0.4,0.3-1,0.2-1.4-0.1c-0.3-0.3-0.8-0.3-1.1,0L6.6,8.7C6.5,8.9,6.2,8.9,6,8.7
		C5.9,8.6,5.9,8.3,6,8.2l1.8-1.8l2.4-1L13,8.2l-1.2,1.8L10.3,8.5z M11.4,4.3l1.3,1.3c0.1,0.1,0.3,0.1,0.4,0c0.1-0.1,0.1-0.3,0-0.4
		l-1.3-1.3l0.4-0.4l2.7,2.7l-1.5,1.5l-2.7-2.7L11.4,4.3z M7.6,5.9C7.5,5.9,7.5,6,7.6,5.9L5.7,7.8c-0.4,0.4-0.4,1,0,1.3
		c0.4,0.4,1,0.4,1.3,0l0.7-0.7c0.1-0.1,0.3-0.1,0.4,0C8.6,9,9.3,9.1,9.9,8.8l1.8,1.8c0,0,0,0,0,0l0.3,0.3c0.2,0.2,0.2,0.4,0,0.6
		c-0.2,0.2-0.4,0.2-0.6,0l-0.3-0.3c-0.1-0.1-0.3-0.1-0.4,0c-0.1,0.1-0.1,0.3,0,0.4l0.3,0.3c0.2,0.2,0.2,0.4,0,0.6
		c-0.2,0.2-0.4,0.2-0.6,0l-0.3-0.3C10,12,9.9,12,9.8,12.1c-0.1,0.1-0.1,0.3,0,0.4l0.3,0.3c0.2,0.2,0.2,0.4,0,0.6
		c-0.2,0.2-0.4,0.2-0.6,0l-0.3-0.3c-0.1-0.1-0.3-0.1-0.4,0c-0.1,0.1-0.1,0.3,0,0.4l0.3,0.3c0.2,0.2,0.2,0.4,0,0.6
		c-0.2,0.2-0.4,0.2-0.6,0l-0.5-0.5l0.1-0.1c0.4-0.4,0.4-1,0-1.3c-0.2-0.2-0.4-0.3-0.7-0.3c0-0.3-0.1-0.5-0.3-0.7
		c-0.2-0.2-0.4-0.3-0.7-0.3c0-0.3-0.1-0.5-0.3-0.7c-0.2-0.2-0.4-0.3-0.7-0.3c0-0.3-0.1-0.5-0.3-0.7C5,9.2,4.6,9.2,4.3,9.3L4.1,8.6
		L7,5.7l0.8,0.1L7.6,5.9z M5,3.9l0.4,0.4L4,5.6C3.9,5.7,3.9,5.9,4,6c0.1,0.1,0.3,0.1,0.4,0l1.3-1.3l0.8,0.8L3.8,8.1L2.3,6.6L5,3.9z"
		/>
</g>
</svg>
