<?xml version="1.0" encoding="utf-8"?>
<!-- Generator: Adobe Illustrator 23.0.1, SVG Export Plug-In . SVG Version: 6.00 Build 0)  -->
<svg version="1.0" id="Layer_1" xmlns="http://www.w3.org/2000/svg" xmlns:xlink="http://www.w3.org/1999/xlink" x="0px" y="0px"
	 viewBox="0 0 17.2 17.2" style="enable-background:new 0 0 17.2 17.2;" xml:space="preserve">
<g>
	<path d="M13.7,6.7c-0.5,0-0.9,0.4-0.9,0.9v1.7c-0.3-0.1-0.7,0-0.9,0.2l-1.6,1.6c-0.2,0.2-0.3,0.5-0.3,0.8v1.4H9.7
		c-0.1,0-0.2,0.1-0.2,0.2V15c0,0.1,0.1,0.2,0.2,0.2H13c0.1,0,0.2-0.1,0.2-0.2v-1.5c0-0.1-0.1-0.2-0.2-0.2h-0.2v-0.1
		c0-0.1,0-0.1,0.1-0.2l1.5-1.5c0.2-0.2,0.3-0.5,0.3-0.8V7.6C14.6,7.1,14.2,6.7,13.7,6.7 M12.7,14.8H9.9v-1h2.8V14.8z M14.1,10.7
		c0,0.2-0.1,0.4-0.2,0.5l-1.5,1.5c-0.1,0.1-0.2,0.3-0.2,0.5v0.1h-1.9v-1.4c0-0.2,0.1-0.4,0.2-0.5l1.6-1.6c0.2-0.2,0.5-0.2,0.6,0
		c0,0,0,0,0,0c0,0,0,0,0,0c0.1,0.1,0.1,0.2,0.1,0.3c0,0.1,0,0.2-0.1,0.3l-1.2,1.2c-0.1,0.1-0.1,0.2,0,0.3c0.1,0.1,0.2,0.1,0.3,0
		l1.2-1.2c0.2-0.2,0.3-0.4,0.3-0.7c0-0.2-0.1-0.4-0.2-0.6v-2c0-0.3,0.2-0.5,0.5-0.5c0.3,0,0.5,0.2,0.5,0.5V10.7z"/>
	<path d="M7.5,13.3H7.3v-1.4c0-0.3-0.1-0.6-0.3-0.8L5.4,9.5C5.1,9.3,4.8,9.2,4.5,9.3V7.6c0-0.5-0.4-0.9-0.9-0.9
		C3,6.7,2.6,7.1,2.6,7.6v3.1c0,0.3,0.1,0.6,0.3,0.8L4.4,13c0,0,0.1,0.1,0.1,0.2v0.1H4.2c-0.1,0-0.2,0.1-0.2,0.2V15
		c0,0.1,0.1,0.2,0.2,0.2h3.3c0.1,0,0.2-0.1,0.2-0.2v-1.5C7.8,13.4,7.6,13.3,7.5,13.3 M5.5,12c0.1-0.1,0.1-0.2,0-0.3l-1.2-1.2
		c-0.1-0.1-0.1-0.2-0.1-0.3c0-0.1,0-0.2,0.1-0.3c0,0,0,0,0,0l0,0c0.2-0.2,0.5-0.2,0.6,0l1.6,1.6c0.1,0.1,0.2,0.3,0.2,0.5v1.4H4.9
		v-0.1c0-0.2-0.1-0.4-0.2-0.5l-1.5-1.5c-0.1-0.1-0.2-0.3-0.2-0.5V7.6c0-0.3,0.2-0.5,0.5-0.5S4,7.3,4,7.6v2C3.8,9.7,3.8,10,3.8,10.2
		c0,0.3,0.1,0.5,0.3,0.7L5.2,12 M7.3,14.8H4.5v-1h2.8V14.8z"/>
	<path d="M10.3,3.7C9.7,3.2,8.8,3,8,3.2c-0.1,0-0.2,0.2-0.2,0.3c0,0.1,0.2,0.2,0.3,0.2c0.7-0.1,1.4,0,1.9,0.4
		c0.5,0.4,0.8,1.1,0.8,1.8c0,1.2-1,2.3-2.3,2.3s-2.3-1-2.3-2.3c0-0.4,0.1-0.7,0.3-1.1c0.1-0.1,0-0.3-0.1-0.3c-0.1-0.1-0.3,0-0.3,0.1
		C6,4.9,5.8,5.4,5.8,5.8c0,1.5,1.2,2.8,2.8,2.8c1.5,0,2.8-1.2,2.8-2.8C11.4,5,11,4.2,10.3,3.7"/>
	<path d="M7.1,4c0.1,0,0.2-0.1,0.2-0.2c0-0.1-0.1-0.2-0.2-0.2c-0.1,0-0.2,0.1-0.2,0.2C6.8,3.9,6.9,4,7.1,4"/>
	<path d="M8.6,2.3c2,0,3.6,1.6,3.6,3.6c0,2-1.6,3.6-3.6,3.6C6.6,9.4,5,7.8,5,5.8C5,3.9,6.6,2.3,8.6,2.3 M8.6,1.8
		c-2.2,0-4.1,1.8-4.1,4.1c0,2.2,1.8,4.1,4.1,4.1c2.2,0,4.1-1.8,4.1-4.1C12.7,3.6,10.8,1.8,8.6,1.8"/>
	<path d="M9,6.5c0,0,0-0.1,0-0.1c0,0,0-0.1-0.1-0.1c0,0-0.1-0.1-0.1-0.1c0,0-0.1-0.1-0.2-0.1C8.5,6,8.4,6,8.3,5.9
		C8.2,5.9,8.1,5.8,8,5.8C8,5.7,7.9,5.6,7.9,5.5S7.8,5.4,7.8,5.2c0-0.1,0-0.2,0.1-0.3c0-0.1,0.1-0.2,0.1-0.2c0.1-0.1,0.1-0.1,0.2-0.2
		c0.1,0,0.2-0.1,0.3-0.1V4.2h0.3v0.4c0.1,0,0.2,0,0.3,0.1c0.1,0,0.2,0.1,0.2,0.2C9.4,4.9,9.4,4.9,9.4,5c0,0.1,0,0.2,0,0.3H9
		c0-0.1,0-0.2-0.1-0.3C8.8,5,8.7,4.9,8.6,4.9c-0.1,0-0.1,0-0.1,0c0,0-0.1,0-0.1,0.1c0,0,0,0.1-0.1,0.1c0,0,0,0.1,0,0.1
		c0,0,0,0.1,0,0.1c0,0,0,0.1,0.1,0.1c0,0,0.1,0.1,0.1,0.1c0,0,0.1,0.1,0.2,0.1c0.1,0,0.2,0.1,0.3,0.1c0.1,0,0.2,0.1,0.2,0.2
		C9.3,6,9.4,6.1,9.4,6.2c0,0.1,0.1,0.2,0.1,0.3c0,0.1,0,0.2-0.1,0.3c0,0.1-0.1,0.2-0.1,0.2C9.2,7,9.1,7.1,9.1,7.1
		C9,7.1,8.9,7.2,8.8,7.2v0.4H8.5V7.2c-0.1,0-0.2,0-0.3-0.1C8.1,7.1,8,7,8,7S7.8,6.8,7.8,6.7c0-0.1-0.1-0.2-0.1-0.4h0.5
		c0,0.1,0,0.2,0,0.2c0,0.1,0.1,0.1,0.1,0.1c0,0,0.1,0.1,0.1,0.1c0,0,0.1,0,0.1,0c0.1,0,0.1,0,0.1,0c0,0,0.1,0,0.1-0.1
		c0,0,0.1-0.1,0.1-0.1C9,6.6,9,6.5,9,6.5"/>
</g>
</svg>
