<?xml version="1.0" encoding="utf-8"?>
<!-- Generator: Adobe Illustrator 23.0.1, SVG Export Plug-In . SVG Version: 6.00 Build 0)  -->
<svg version="1.0" id="Layer_1" xmlns="http://www.w3.org/2000/svg" xmlns:xlink="http://www.w3.org/1999/xlink" x="0px" y="0px"
	 viewBox="0 0 17.2 17.2" style="enable-background:new 0 0 17.2 17.2;" xml:space="preserve">
<g>
	<path d="M11.6,15.8c-0.1,0-0.3-0.1-0.3-0.3v-2.4H5.8v2.4c0,0.1-0.1,0.3-0.3,0.3c-0.1,0-0.3-0.1-0.3-0.3V14l-1.9,0
		c-0.1,0-0.2,0.1-0.2,0.2v1.6l-0.7,0c-0.2,0-0.5,0-0.7,0c0,0,0,0,0,0c-0.1,0-0.3-0.1-0.3-0.3c0-0.1,0.1-0.3,0.3-0.3
		c0.2,0,0.5,0,0.7,0l0.2,0l0-0.3l0-0.8c0-0.4,0.3-0.7,0.7-0.7h0.1c0-1.2,0-2.4,0-3.6c0-0.3,0.2-0.6,0.4-0.7C4.2,9,4.4,8.9,4.7,8.8
		c0.2-0.1,0.4-0.2,0.6-0.3c0,0,0,0,0,0c0-0.3,0-0.6,0-1c0-0.4,0-0.7,0-1.1c0-0.3,0.2-0.6,0.5-0.7C6,5.6,6.2,5.4,6.4,5.3
		C6.6,5.2,6.8,5.1,7,5V5c0,0,0,0,0-0.1c0-0.4,0-0.8,0-1.1C7,3.3,7.3,3,7.8,3h0.2l0-0.1c0-0.3,0-0.5,0-0.8c0-0.4,0.1-0.7,0.5-0.8
		l0.1,0l0.3,0c0.3,0.2,0.5,0.4,0.5,0.8c0,0.2,0,0.5,0,0.7l0,0.1l0.1,0c0.5,0,0.8,0.3,0.8,0.8v0.7c0,0.7,0,1.5,0,2.2
		c0.3,0.1,0.5,0.3,0.8,0.4l0.5,0.3c0.3,0.1,0.4,0.4,0.4,0.7l0,0.5c0,0.2,0,0.4,0,0.6c0,0,0,0,0,0.1v0.1c0.2,0.1,0.4,0.2,0.6,0.3
		c0.2,0.1,0.4,0.2,0.6,0.3c0.3,0.2,0.5,0.4,0.5,0.7c0,0.7,0,1.3,0,2v0.7c0.1,0,0.1,0,0.2,0c0.4,0,0.7,0.3,0.7,0.7c0,0.1,0,0.2,0,0.2
		l0,0.9l0.9,0c0.1,0,0.3,0.1,0.3,0.3c0,0.1-0.1,0.3-0.3,0.3l-1.4,0v-1.4c0-0.1,0-0.1,0-0.2c0-0.1-0.1-0.2-0.2-0.2
		c-0.1,0-0.2,0-0.2,0c0,0,0,0,0,0h-1.6v1.5C11.9,15.7,11.8,15.8,11.6,15.8 M11.9,13.4h1.2l0-0.7c0-0.7,0-1.3,0-2
		c0-0.1,0-0.2-0.2-0.3c-0.2-0.1-0.4-0.2-0.6-0.3C12.2,10.1,12,10,11.9,10V13.4z M4.1,13.4h1.2V9.1C5.2,9.2,5,9.2,4.9,9.3
		C4.7,9.4,4.5,9.5,4.2,9.6C4.1,9.7,4.1,9.7,4.1,9.9C4.1,11.1,4.1,12.2,4.1,13.4 M10.2,12.6h1.2V9.5c0,0,0-0.1,0-0.1
		c0-0.2,0-0.5,0-0.7l0-0.5c0-0.1,0-0.2-0.1-0.2l-0.5-0.3c-0.2-0.1-0.4-0.2-0.5-0.3V12.6z M7.6,12.6h2.1V6.8c0,0,0,0,0-0.1
		c0-0.7,0-1.5,0-2.2V3.8c0-0.2,0-0.2-0.2-0.2l-0.2,0l-0.3,0l0-0.2c0-0.1,0-0.1,0-0.1l0-0.3c0-0.3,0-0.5,0-0.8c0-0.2,0-0.3-0.1-0.3
		H8.6C8.5,1.9,8.4,2,8.4,2.1c0,0.3,0,0.5,0,0.8l0,0.6H7.8c-0.1,0-0.2,0.1-0.2,0.2c0,0.4,0,0.9,0,1.3c0,0,0,0.1,0,0.1V12.6z
		 M5.8,12.6H7V5.6C6.9,5.7,6.8,5.7,6.7,5.8C6.5,5.9,6.2,6,6,6.2C5.9,6.2,5.8,6.3,5.8,6.4c0,0.4,0,0.7,0,1.1c0,0.3,0,0.7,0,1
		c0,0,0,0.1,0,0.1V12.6z"/>
	<path d="M14.6,15.8H1.8c-0.1,0-0.3-0.1-0.3-0.3c0-0.1,0.1-0.3,0.3-0.3h12.9c0.1,0,0.3,0.1,0.3,0.3C14.9,15.6,14.8,15.8,14.6,15.8"
		/>
</g>
</svg>
