<?xml version="1.0" encoding="utf-8"?>
<!-- Generator: Adobe Illustrator 23.0.1, SVG Export Plug-In . SVG Version: 6.00 Build 0)  -->
<svg version="1.0" id="Layer_1" xmlns="http://www.w3.org/2000/svg" xmlns:xlink="http://www.w3.org/1999/xlink" x="0px" y="0px"
	 viewBox="0 0 17.2 17.2" style="enable-background:new 0 0 17.2 17.2;" xml:space="preserve">
<g>
	<path d="M9.8,12.4c-0.1,0-0.2-0.1-0.2-0.2c0-0.1,0.1-0.3,0.2-0.3c0.8-0.1,1.4-0.5,1.9-1.2c0.4-0.6,0.6-1.4,0.5-2.1
		c0-0.1,0.1-0.3,0.2-0.3c0.1,0,0.3,0.1,0.3,0.2c0.2,0.9,0,1.8-0.6,2.5C11.5,11.8,10.7,12.2,9.8,12.4C9.8,12.4,9.8,12.4,9.8,12.4"/>
	<path d="M5.1,9.4c-0.1,0-0.2-0.1-0.2-0.2c-0.2-0.9,0-1.8,0.5-2.5c0.5-0.7,1.3-1.2,2.2-1.4c0.1,0,0.3,0.1,0.3,0.2
		c0,0.1-0.1,0.3-0.2,0.3C6.8,5.9,6.2,6.3,5.8,6.9C5.3,7.6,5.2,8.3,5.3,9.1C5.3,9.2,5.2,9.3,5.1,9.4C5.1,9.4,5.1,9.4,5.1,9.4"/>
	<path d="M8.7,11.2c-0.1,0-0.2,0-0.3-0.1L6.8,9.8C6.4,9.5,6.2,9,6.2,8.6C6.2,7.7,6.9,7,7.8,7c0.3,0,0.7,0.1,0.9,0.3
		C9,7.1,9.3,7,9.6,7c0.9,0,1.6,0.7,1.6,1.6c0,0.4-0.2,0.8-0.5,1.1L9.1,11C9,11.1,8.8,11.2,8.7,11.2 M7.8,7.6c-0.6,0-1,0.5-1,1
		c0,0.3,0.1,0.6,0.4,0.8l1.6,1.2l1.6-1.3c0.2-0.2,0.3-0.4,0.3-0.7c0-0.6-0.5-1-1-1c-0.3,0-0.5,0.1-0.7,0.3L8.7,8.1L8.5,7.9
		C8.3,7.7,8.1,7.6,7.8,7.6"/>
	<path d="M3.5,9.4H1.9c-0.1,0-0.3,0.1-0.3,0.3v3.6c0,0.1,0.1,0.3,0.3,0.3h1.6c0.1,0,0.3-0.1,0.3-0.3v-0.3h0.1c0.1,0,0.1,0,0.2,0.1
		l1.6,1.6c0.2,0.2,0.6,0.4,0.9,0.4h3.4c0.6,0,1-0.5,1-1c0-0.6-0.5-1-1-1H8.1c0.1-0.3,0-0.7-0.3-1l-1.7-1.7C5.9,10,5.6,9.9,5.2,9.9
		H3.7V9.6C3.7,9.5,3.6,9.4,3.5,9.4 M5.1,12.1l1.3,1.3c0.2,0.2,0.4,0.3,0.7,0.3c0.2,0,0.5-0.1,0.7-0.3h2.1c0.3,0,0.5,0.2,0.5,0.5
		c0,0.3-0.2,0.5-0.5,0.5H6.5c-0.2,0-0.4-0.1-0.5-0.2l-1.6-1.6c-0.1-0.1-0.3-0.2-0.5-0.2H3.7v-2h1.5c0.2,0,0.4,0.1,0.5,0.2l1.7,1.7
		c0.2,0.2,0.2,0.5,0,0.7l0,0c0,0,0,0,0,0c-0.1,0.1-0.2,0.1-0.4,0.1c-0.1,0-0.3-0.1-0.4-0.1l-1.3-1.3c-0.1-0.1-0.3-0.1-0.4,0
		 M3.2,12.9H2.1V9.9h1.1V12.9z"/>
	<path d="M13.7,8.2h1.6c0.1,0,0.3-0.1,0.3-0.3V4.4c0-0.1-0.1-0.3-0.3-0.3h-1.6c-0.1,0-0.3,0.1-0.3,0.3v0.3h-0.1
		c-0.1,0-0.1,0-0.2-0.1L11.6,3c-0.2-0.2-0.6-0.4-0.9-0.4H7.3c-0.6,0-1,0.5-1,1c0,0.6,0.5,1,1,1h1.8C9,5,9.1,5.4,9.4,5.6l1.7,1.7
		c0.2,0.2,0.6,0.4,0.9,0.4h1.5V8C13.5,8.1,13.6,8.2,13.7,8.2 M12.1,5.5l-1.3-1.3c-0.2-0.2-0.4-0.3-0.7-0.3C9.8,3.9,9.6,4,9.4,4.2
		H7.3C7,4.2,6.8,3.9,6.8,3.6S7,3.1,7.3,3.1h3.4c0.2,0,0.4,0.1,0.5,0.2l1.6,1.6c0.1,0.1,0.3,0.2,0.5,0.2h0.1v2H12
		c-0.2,0-0.4-0.1-0.5-0.2L9.7,5.3c-0.2-0.2-0.2-0.5,0-0.7l0,0c0,0,0,0,0,0c0.1-0.1,0.2-0.1,0.4-0.1c0.1,0,0.3,0.1,0.4,0.1l1.3,1.3
		c0.1,0.1,0.3,0.1,0.4,0 M14,4.7h1.1v3.1H14V4.7z"/>
</g>
</svg>
