<?xml version="1.0" encoding="utf-8"?>
<!-- Generator: Adobe Illustrator 23.0.1, SVG Export Plug-In . SVG Version: 6.00 Build 0)  -->
<svg version="1.0" id="Layer_1" xmlns="http://www.w3.org/2000/svg" xmlns:xlink="http://www.w3.org/1999/xlink" x="0px" y="0px"
	 viewBox="0 0 273.2 95.9" style="enable-background:new 0 0 273.2 95.9;" xml:space="preserve">
<g>
	<path d="M0,0v95.9h95.9V0H0z M84.7,84.7H11.2V11.2h73.5V84.7z"/>
	<g>
		<path d="M40.3,36.9c0.1-2.6,3.7-4.7,7.1-4.7c4,0,7.4,1.8,7.5,5.2h13c0-10.6-8.3-17.4-20.2-17.4c-11.9,0-20.4,6.5-20.6,16.9H40.3z"
			/>
		<path d="M55.8,43.5l-5.9-0.9v11.7l0.4,0.1c4.5,0.9,6,2,6,4.3c0,3.1-3.6,4.6-8.1,4.7c-5.3,0-8.6-2.4-8.8-5.2H26.3
			c0,11.5,9.6,17.7,21.3,17.7c13.7,0,22-7.3,22-17.5C69.6,51.2,66.4,45.9,55.8,43.5z"/>
	</g>
</g>
<g>
	<path d="M133.1,42.6c-1.5,0.3-3,0.5-4.8,0.5c-1.8,0-3.4-0.3-4.9-0.8c-1.5-0.5-2.8-1.3-3.9-2.3c-1.1-1-1.9-2.2-2.5-3.6
		c-0.6-1.4-0.9-2.9-0.9-4.6c0-1.7,0.3-3.3,0.9-4.7c0.6-1.4,1.5-2.6,2.6-3.6c1.1-1,2.4-1.7,3.8-2.3c1.5-0.5,3.1-0.8,4.8-0.8
		c1.8,0,3.4,0.3,4.9,0.8c1.5,0.5,2.7,1.2,3.7,2.1l-3.4,3.7c-0.5-0.6-1.2-1.1-2.1-1.4c-0.9-0.4-1.8-0.6-2.9-0.6
		c-0.9,0-1.8,0.2-2.6,0.5c-0.8,0.3-1.5,0.8-2.1,1.4c-0.6,0.6-1,1.3-1.4,2.1c-0.3,0.8-0.5,1.7-0.5,2.7c0,1,0.1,1.9,0.4,2.7
		c0.3,0.8,0.7,1.5,1.3,2.1s1.3,1.1,2.1,1.4c0.8,0.3,1.8,0.5,2.9,0.5c0.6,0,1.2,0,1.8-0.1c0.6-0.1,1.1-0.2,1.6-0.4v-3.9h-4.2v-4.2
		h9.2v11.4C135.8,41.8,134.5,42.3,133.1,42.6z"/>
	<path d="M153.2,42.6l-4.8-8.5h-1.8v8.5h-5.3V21.1h8.5c1.1,0,2.1,0.1,3.1,0.3c1,0.2,1.9,0.6,2.7,1.1c0.8,0.5,1.5,1.2,1.9,2
		c0.5,0.8,0.7,1.9,0.7,3.1c0,1.5-0.4,2.7-1.2,3.7c-0.8,1-2,1.7-3.4,2.1l5.8,9.2H153.2z M153,27.7c0-0.5-0.1-0.9-0.3-1.2
		c-0.2-0.3-0.5-0.6-0.9-0.7c-0.3-0.2-0.7-0.3-1.2-0.3c-0.4-0.1-0.8-0.1-1.2-0.1h-2.9v5h2.6c0.4,0,0.9,0,1.4-0.1
		c0.5-0.1,0.9-0.2,1.3-0.4c0.4-0.2,0.7-0.4,0.9-0.8C152.9,28.7,153,28.2,153,27.7z"/>
	<path d="M180.4,38c-0.5,1.1-1.1,2-1.9,2.7c-0.8,0.8-1.9,1.4-3,1.8c-1.2,0.4-2.5,0.6-3.9,0.6c-1.5,0-2.8-0.2-4-0.6
		c-1.2-0.4-2.2-1-3-1.8c-0.8-0.8-1.4-1.7-1.9-2.7c-0.4-1.1-0.7-2.2-0.7-3.5V21.1h5.3v13c0,0.6,0.1,1.1,0.2,1.7
		c0.2,0.5,0.4,1,0.7,1.4c0.3,0.4,0.8,0.7,1.3,1c0.5,0.2,1.2,0.4,1.9,0.4c0.8,0,1.4-0.1,1.9-0.4c0.5-0.2,1-0.6,1.3-1s0.6-0.9,0.7-1.4
		c0.1-0.5,0.2-1.1,0.2-1.7v-13h5.4v13.4C181,35.8,180.8,37,180.4,38z"/>
	<path d="M202.3,27.7c0,1.3-0.2,2.3-0.7,3.2c-0.5,0.9-1.1,1.6-2,2.1c-0.8,0.5-1.8,0.9-2.8,1.2s-2.2,0.4-3.3,0.4h-2.7v8.1h-5.4V21.1
		h8.2c1.2,0,2.4,0.1,3.4,0.3c1.1,0.2,2,0.6,2.8,1.1c0.8,0.5,1.4,1.2,1.9,2C202,25.4,202.3,26.5,202.3,27.7z M196.9,27.7
		c0-0.5-0.1-0.9-0.3-1.2c-0.2-0.3-0.5-0.6-0.8-0.8c-0.4-0.2-0.8-0.3-1.2-0.4c-0.5-0.1-0.9-0.1-1.4-0.1h-2.4v5.1h2.3
		c0.5,0,1,0,1.4-0.1c0.5-0.1,0.9-0.2,1.2-0.4c0.4-0.2,0.7-0.5,0.9-0.8C196.8,28.7,196.9,28.3,196.9,27.7z"/>
	<path d="M218.7,42.6l-1.7-4.2h-8.6l-1.6,4.2h-5.9l9.3-21.5h5.2l9.3,21.5H218.7z M212.7,26.8l-2.8,7.4h5.6L212.7,26.8z"/>
	<path d="M132.2,75.1l-1.7-4.2h-8.6l-1.6,4.2h-5.9l9.3-21.5h5.2l9.3,21.5H132.2z M126.2,59.3l-2.8,7.4h5.6L126.2,59.3z"/>
	<path d="M151.8,59.2c-0.5-0.6-1.1-1-1.8-1.4c-0.7-0.3-1.5-0.5-2.2-0.5c-0.4,0-0.7,0-1.1,0.1c-0.4,0.1-0.7,0.2-1,0.3
		c-0.3,0.2-0.5,0.4-0.7,0.7c-0.2,0.3-0.3,0.6-0.3,1c0,0.4,0.1,0.7,0.2,0.9c0.2,0.2,0.4,0.5,0.7,0.6c0.3,0.2,0.7,0.3,1.1,0.5
		c0.4,0.2,0.9,0.3,1.4,0.5c0.8,0.2,1.5,0.5,2.4,0.8c0.8,0.3,1.6,0.7,2.2,1.2c0.7,0.5,1.2,1.1,1.7,1.8c0.4,0.7,0.7,1.6,0.7,2.7
		c0,1.2-0.2,2.3-0.7,3.2c-0.5,0.9-1.1,1.6-1.9,2.2c-0.8,0.6-1.7,1-2.7,1.3c-1,0.3-2.1,0.4-3.2,0.4c-1.6,0-3.1-0.3-4.6-0.8
		c-1.5-0.5-2.7-1.3-3.7-2.3l3.5-3.5c0.5,0.6,1.3,1.2,2.2,1.6c0.9,0.4,1.8,0.7,2.7,0.7c0.4,0,0.8,0,1.2-0.1s0.7-0.2,1-0.4
		c0.3-0.2,0.5-0.4,0.7-0.7c0.2-0.3,0.3-0.7,0.3-1.1c0-0.4-0.1-0.8-0.3-1c-0.2-0.3-0.5-0.5-0.9-0.8c-0.4-0.2-0.9-0.4-1.4-0.6
		c-0.6-0.2-1.2-0.4-2-0.6c-0.7-0.2-1.4-0.5-2.1-0.8c-0.7-0.3-1.3-0.7-1.8-1.2c-0.5-0.5-1-1.1-1.3-1.7c-0.3-0.7-0.5-1.5-0.5-2.5
		c0-1.2,0.3-2.2,0.8-3.1s1.2-1.6,2-2.1c0.8-0.5,1.7-0.9,2.8-1.2s2.1-0.4,3.1-0.4c1.3,0,2.5,0.2,3.9,0.7c1.3,0.4,2.5,1.1,3.4,2
		L151.8,59.2z"/>
	<path d="M170.4,59.2c-0.5-0.6-1.1-1-1.8-1.4c-0.7-0.3-1.5-0.5-2.2-0.5c-0.4,0-0.7,0-1.1,0.1c-0.4,0.1-0.7,0.2-1,0.3
		c-0.3,0.2-0.5,0.4-0.7,0.7c-0.2,0.3-0.3,0.6-0.3,1c0,0.4,0.1,0.7,0.2,0.9c0.2,0.2,0.4,0.5,0.7,0.6c0.3,0.2,0.7,0.3,1.1,0.5
		c0.4,0.2,0.9,0.3,1.4,0.5c0.8,0.2,1.5,0.5,2.4,0.8c0.8,0.3,1.6,0.7,2.2,1.2c0.7,0.5,1.2,1.1,1.7,1.8c0.4,0.7,0.7,1.6,0.7,2.7
		c0,1.2-0.2,2.3-0.7,3.2c-0.5,0.9-1.1,1.6-1.9,2.2c-0.8,0.6-1.7,1-2.7,1.3c-1,0.3-2.1,0.4-3.2,0.4c-1.6,0-3.1-0.3-4.6-0.8
		c-1.5-0.5-2.7-1.3-3.7-2.3l3.5-3.5c0.5,0.6,1.3,1.2,2.2,1.6c0.9,0.4,1.8,0.7,2.7,0.7c0.4,0,0.8,0,1.2-0.1s0.7-0.2,1-0.4
		c0.3-0.2,0.5-0.4,0.7-0.7c0.2-0.3,0.3-0.7,0.3-1.1c0-0.4-0.1-0.8-0.3-1c-0.2-0.3-0.5-0.5-0.9-0.8c-0.4-0.2-0.9-0.4-1.4-0.6
		c-0.6-0.2-1.2-0.4-2-0.6c-0.7-0.2-1.4-0.5-2.1-0.8c-0.7-0.3-1.3-0.7-1.8-1.2c-0.5-0.5-1-1.1-1.3-1.7c-0.3-0.7-0.5-1.5-0.5-2.5
		c0-1.2,0.3-2.2,0.8-3.1s1.2-1.6,2-2.1c0.8-0.5,1.7-0.9,2.8-1.2s2.1-0.4,3.1-0.4c1.3,0,2.5,0.2,3.9,0.7c1.3,0.4,2.5,1.1,3.4,2
		L170.4,59.2z"/>
	<path d="M177.2,75.1V53.6h5.4v21.5H177.2z"/>
	<path d="M208,64.3c0,1.9-0.4,3.5-1.1,4.9c-0.7,1.4-1.7,2.5-2.9,3.4c-1.2,0.9-2.5,1.5-4,1.9c-1.5,0.4-3,0.6-4.5,0.6h-8.3V53.6h8.1
		c1.6,0,3.1,0.2,4.7,0.5c1.5,0.4,2.9,0.9,4.1,1.8s2.2,1.9,2.9,3.3C207.7,60.5,208,62.2,208,64.3z M202.4,64.3c0-1.2-0.2-2.2-0.6-3
		c-0.4-0.8-1-1.4-1.6-1.9c-0.7-0.5-1.5-0.8-2.3-1c-0.9-0.2-1.8-0.3-2.7-0.3h-2.7v12.6h2.5c1,0,1.9-0.1,2.8-0.3
		c0.9-0.2,1.7-0.6,2.4-1c0.7-0.5,1.2-1.1,1.6-1.9C202.2,66.5,202.4,65.5,202.4,64.3z"/>
	<path d="M229.8,70.5c-0.5,1.1-1.1,2-1.9,2.7s-1.9,1.4-3,1.8c-1.2,0.4-2.5,0.6-3.9,0.6c-1.5,0-2.8-0.2-4-0.6c-1.2-0.4-2.2-1-3-1.8
		c-0.8-0.8-1.4-1.7-1.9-2.7c-0.4-1.1-0.7-2.2-0.7-3.5V53.6h5.3v13c0,0.6,0.1,1.1,0.2,1.7c0.2,0.5,0.4,1,0.7,1.4
		c0.3,0.4,0.8,0.7,1.3,1c0.5,0.2,1.2,0.4,1.9,0.4c0.8,0,1.4-0.1,1.9-0.4c0.5-0.2,1-0.6,1.3-1s0.6-0.9,0.7-1.4
		c0.1-0.5,0.2-1.1,0.2-1.7v-13h5.4V67C230.5,68.3,230.2,69.4,229.8,70.5z"/>
	<path d="M253,70.5c-0.5,1.1-1.1,2-1.9,2.7s-1.9,1.4-3,1.8c-1.2,0.4-2.5,0.6-3.9,0.6c-1.5,0-2.8-0.2-4-0.6c-1.2-0.4-2.2-1-3-1.8
		c-0.8-0.8-1.4-1.7-1.9-2.7c-0.4-1.1-0.7-2.2-0.7-3.5V53.6h5.3v13c0,0.6,0.1,1.1,0.2,1.7c0.2,0.5,0.4,1,0.7,1.4
		c0.3,0.4,0.8,0.7,1.3,1c0.5,0.2,1.2,0.4,1.9,0.4c0.8,0,1.4-0.1,1.9-0.4c0.5-0.2,1-0.6,1.3-1s0.6-0.9,0.7-1.4
		c0.1-0.5,0.2-1.1,0.2-1.7v-13h5.4V67C253.7,68.3,253.5,69.4,253,70.5z"/>
	<path d="M269.8,59.2c-0.5-0.6-1.1-1-1.8-1.4c-0.7-0.3-1.5-0.5-2.2-0.5c-0.4,0-0.7,0-1.1,0.1c-0.4,0.1-0.7,0.2-1,0.3
		c-0.3,0.2-0.5,0.4-0.7,0.7c-0.2,0.3-0.3,0.6-0.3,1c0,0.4,0.1,0.7,0.2,0.9c0.2,0.2,0.4,0.5,0.7,0.6c0.3,0.2,0.7,0.3,1.1,0.5
		c0.4,0.2,0.9,0.3,1.4,0.5c0.8,0.2,1.5,0.5,2.4,0.8c0.8,0.3,1.6,0.7,2.2,1.2c0.7,0.5,1.2,1.1,1.7,1.8c0.4,0.7,0.7,1.6,0.7,2.7
		c0,1.2-0.2,2.3-0.7,3.2c-0.5,0.9-1.1,1.6-1.9,2.2c-0.8,0.6-1.7,1-2.7,1.3c-1,0.3-2.1,0.4-3.2,0.4c-1.6,0-3.1-0.3-4.6-0.8
		c-1.5-0.5-2.7-1.3-3.7-2.3l3.5-3.5c0.5,0.6,1.3,1.2,2.2,1.6c0.9,0.4,1.8,0.7,2.7,0.7c0.4,0,0.8,0,1.2-0.1s0.7-0.2,1-0.4
		c0.3-0.2,0.5-0.4,0.7-0.7c0.2-0.3,0.3-0.7,0.3-1.1c0-0.4-0.1-0.8-0.3-1c-0.2-0.3-0.5-0.5-0.9-0.8c-0.4-0.2-0.9-0.4-1.4-0.6
		c-0.6-0.2-1.2-0.4-2-0.6c-0.7-0.2-1.4-0.5-2.1-0.8c-0.7-0.3-1.3-0.7-1.8-1.2c-0.5-0.5-1-1.1-1.3-1.7c-0.3-0.7-0.5-1.5-0.5-2.5
		c0-1.2,0.3-2.2,0.8-3.1s1.2-1.6,2-2.1c0.8-0.5,1.7-0.9,2.8-1.2s2.1-0.4,3.1-0.4c1.3,0,2.5,0.2,3.9,0.7c1.3,0.4,2.5,1.1,3.4,2
		L269.8,59.2z"/>
</g>
</svg>
